<?xml version="1.0" standalone="no"?><!DOCTYPE svg PUBLIC "-//W3C//DTD SVG 1.1//EN" "http://www.w3.org/Graphics/SVG/1.1/DTD/svg11.dtd"><svg class="icon" width="200px" height="181.88px" viewBox="0 0 1126 1024" version="1.1" xmlns="http://www.w3.org/2000/svg"><path d="M972.8 1024h-819.2c-87.04 0-153.6-66.56-153.6-153.6v-716.8c0-87.04 66.56-153.6 153.6-153.6h256c15.36 0 30.72 10.24 40.96 20.48l87.04 133.12h435.2c87.04 0 153.6 66.56 153.6 153.6v563.2c0 87.04-66.56 153.6-153.6 153.6z m-819.2-921.6c-30.72 0-51.2 20.48-51.2 51.2v716.8c0 30.72 20.48 51.2 51.2 51.2h819.2c30.72 0 51.2-20.48 51.2-51.2v-563.2c0-30.72-20.48-51.2-51.2-51.2h-460.8c-15.36 0-30.72-10.24-40.96-20.48l-87.04-133.12h-230.4z" /></svg>